# exported with NifSkope

mtllib mdl4.mtl

# braids02:0

g braids02:0
usemtl Material.000001

v 12.537928581237793 2.2632761001586914 68.918807983398438
v 10.884151458740234 5.8918838500976563 68.450492858886719
v 10.884485244750977 4.7725472450256348 72.900375366210938
v 11.694520950317383 1.9805563688278198 73.402572631835938
v 14.288915634155273 1.6258881092071533 57.681369781494141
v 12.794983863830566 6.1806244850158691 57.427623748779297
v 12.121479034423828 6.0113296508789063 61.735504150390625
v 13.74183464050293 1.4130656719207764 61.735221862792969
v 15.59019947052002 1.8845106363296509 48.635040283203125
v 14.063576698303223 5.998507022857666 48.281402587890625
v 13.419905662536621 6.2617888450622559 52.096542358398438
v 14.721449851989746 1.887284517288208 52.661754608154297
v 13.066489219665527 1.8638657331466675 65.631637573242188
v 11.466476440429688 6.0366806983947754 65.079010009765625
v 16.445638656616211 1.5178600549697876 45.327213287353516
v 14.784807205200195 5.6097569465637207 44.966838836669922
v -12.308412551879883 2.3764746189117432 66.402015686035156
v -12.67952823638916 -1.4739131927490234 66.605354309082031
v -12.288467407226563 -0.99613070487976074 68.208610534667969
v -12.210710525512695 2.1502022743225098 67.937812805175781
v -14.577877998352051 2.6258440017700195 58.263416290283203
v -15.148159027099609 -1.7695320844650269 58.788021087646484
v -13.479391098022461 -2.2889432907104492 63.089611053466797
v -12.888931274414063 2.3803985118865967 62.284336090087891
v -15.476848602294922 1.0723568201065063 49.099258422851563
v -16.659591674804688 -1.3698701858520508 49.347949981689453
v -15.982149124145508 -1.4373455047607422 53.52056884765625
v -14.349885940551758 0.62485027313232422 53.084270477294922
v -12.583621025085449 2.377063512802124 64.271034240722656
v -13.106930732727051 -1.8996281623840332 64.690185546875
v -16.326101303100586 1.3537729978561401 45.760356903076172
v -17.325088500976563 -1.6485098600387573 46.069808959960938
v 3.5540769100189209 11.962231636047363 55.651435852050781
v 0.74935400485992432 11.344286918640137 55.499210357666016
v 0.9891819953918457 11.693897247314453 60.054775238037109
v 3.2580881118774414 11.599763870239258 60.220897674560547
v 3.9826760292053223 12.643272399902344 45.678783416748047
v 0.51236999034881592 11.165958404541016 45.455596923828125
v 0.46789398789405823 11.292767524719238 49.8626708984375
v 3.9321830272674561 12.407106399536133 50.021953582763672
v 4.1737442016601563 12.679910659790039 41.864913940429688
v 0.61779201030731201 11.076107978820801 41.301780700683594
v 1.0781660079956055 11.780065536499023 61.288276672363281
v 3.1889309883117676 11.594268798828125 62.647758483886719
v -7.8690500259399414 9.0792703628540039 60.792366027832031
v -6.2040290832519531 9.9322748184204102 60.532699584960938
v -7.5009160041809082 9.6863174438476563 56.407241821289063
v -8.7614841461181641 9.0593738555908203 56.676353454589844
v -8.5341272354125977 9.4454126358032227 51.273948669433594
v -8.7832136154174805 9.5770416259765625 46.801013946533203
v -9.9221315383911133 9.3858518600463867 47.002017974853516
v -9.7182464599609375 8.8614091873168945 51.453521728515625
v -4.7932009696960449 10.863807678222656 62.798587799072266
v -7.6844310760498047 8.9770593643188477 63.136402130126953
v -7.5526680946350098 8.8173580169677734 65.298622131347656
v -4.515620231628418 11.231337547302246 65.701911926269531
v -9.0519838333129883 9.6491823196411133 42.947563171386719
v -10.762763023376465 9.3962907791137695 43.132633209228516
v -7.4056868553161621 9.6673240661621094 67.694419860839844
v -5.3099980354309082 10.986820220947266 68.02972412109375
v 9.044651985168457 8.8438854217529297 64.485641479492188
v 5.56976318359375 10.476832389831543 63.907375335693359
v 5.5791168212890625 10.093753814697266 66.621315002441406
v 8.0523548126220703 8.8835353851318359 67.699356079101563
v 8.0606203079223633 8.3092365264892578 71.675827026367188
v 5.5555019378662109 10.300811767578125 69.203071594238281
v 6.4218668937683105 9.5931358337402344 71.059646606445313
v 9.27435302734375 9.1205568313598633 61.083358764648438
v 7.0765161514282227 10.324886322021484 60.607410430908203
v 9.6075973510742188 9.5592527389526367 56.578418731689453
v 7.6616168022155762 10.389105796813965 56.174900054931641
v 9.8462696075439453 9.9009485244750977 50.999046325683594
v 8.3759088516235352 10.451802253723145 50.70849609375
v 10.501416206359863 9.6398124694824219 46.574054718017578
v 8.737849235534668 10.278772354125977 46.683795928955078
v 11.76746654510498 9.4940595626831055 42.713970184326172
v 8.8761653900146484 10.328756332397461 43.190959930419922
v 4.0199952125549316 -9.3030414581298828 69.328392028808594
v 7.3523402214050293 -8.4451160430908203 69.705360412597656
v 6.8320178985595703 -7.2054224014282227 73.549179077148438
v 3.55560302734375 -8.3875980377197266 72.964614868164063
v 4.9881129264831543 -10.209071159362793 59.321395874023438
v 9.198582649230957 -9.5922908782958984 59.384994506835938
v 8.2201824188232422 -9.685760498046875 63.393428802490234
v 4.7451620101928711 -10.164463043212891 63.270210266113281
v 5.5531301498413086 -10.308512687683105 50.565910339355469
v 10.61989688873291 -9.0863513946533203 50.494590759277344
v 10.24929141998291 -9.2046041488647461 54.446796417236328
v 5.2935872077941895 -10.073966979980469 54.472675323486328
v 4.3944830894470215 -9.9559946060180664 66.363090515136719
v 7.8046789169311523 -9.2498435974121094 66.640052795410156
v 5.7302451133728027 -10.306385040283203 47.156692504882813
v 11.01202392578125 -9.2427644729614258 47.412509918212891
v -9.3912935256958008 -7.7685823440551758 67.783943176269531
v -6.639686107635498 -9.4321155548095703 68.03839111328125
v -7.0796990394592285 -8.6406974792480469 70.54400634765625
v -9.2431392669677734 -7.329676628112793 69.704597473144531
v -9.9274196624755859 -8.7228803634643555 59.650371551513672
v -6.3199210166931152 -10.546314239501953 59.463088989257813
v -6.0096311569213867 -10.559079170227051 63.41943359375
v -9.63287353515625 -8.5684833526611328 63.864727020263672
v -10.927781105041504 -8.462677001953125 49.737129211425781
v -8.3260221481323242 -9.8149881362915039 50.470123291015625
v -8.0068235397338867 -9.8267793655395508 54.626777648925781
v -10.294046401977539 -8.7195749282836914 54.468799591064453
v -9.5104703903198242 -8.2242469787597656 65.695304870605469
v -6.3435711860656738 -10.034364700317383 65.651618957519531
v -11.581823348999023 -8.4288234710693359 45.672138214111328
v -8.5601272583007813 -9.9624710083007813 46.847007751464844
vt 0.011490000411868095 0.46847701072692871
vt 0.053559001535177231 0.46624898910522461
vt 0.039002999663352966 0.51504600048065186
vt 0.0083090001717209816 0.51910102367401123
vt 0.0040939999744296074 0.34233295917510986
vt 0.054854001849889755 0.34219199419021606
vt 0.053529001772403717 0.39050000905990601
vt 0.0023910000454634428 0.38772702217102051
vt 0.0055269999429583549 0.24029803276062012
vt 0.054434999823570251 0.23991400003433228
vt 0.056616999208927155 0.28282201290130615
vt 0.0063410000875592232 0.28631496429443359
vt 0.0073589999228715897 0.43165397644042969
vt 0.054517000913619995 0.42824196815490723
vt 0.001243000035174191 0.20249497890472412
vt 0.050140000879764557 0.20239198207855225
vt 0.0049749370664358139 0.49439072608947754
vt 0.049816001206636429 0.49320501089096069
vt 0.044987000524997711 0.51572197675704956
vt 0.0056960000656545162 0.51438498497009277
vt 0.0042839371599256992 0.38350468873977661
vt 0.056802999228239059 0.3867110013961792
vt 0.058189999312162399 0.44443202018737793
vt 0.0028179369401186705 0.43816667795181274
vt 0.022621000185608864 0.25611001253128052
vt 0.055109001696109772 0.25819200277328491
vt 0.055557001382112503 0.315326988697052
vt 0.027350999414920807 0.31185799837112427
vt 0.0035659370478242636 0.46533268690109253
vt 0.05408100038766861 0.46657800674438477
vt 0.016819000244140625 0.20996099710464478
vt 0.05748400092124939 0.2127540111541748
vt 0.0091770002618432045 0.38494199514389038
vt 0.044867001473903656 0.38395702838897705
vt 0.040224000811576843 0.44192397594451904
vt 0.011370999738574028 0.44334399700164795
vt 0.0067619998008012772 0.25838696956634521
vt 0.050616998225450516 0.2565540075302124
vt 0.050285998731851578 0.31247103214263916
vt 0.0063499999232590199 0.31325799226760864
vt 0.0049939998425543308 0.21012300252914429
vt 0.050220999866724014 0.20385003089904785
vt 0.038910001516342163 0.45744895935058594
vt 0.01192300021648407 0.47405803203582764
vt 0.047766000032424927 0.45639097690582275
vt 0.022765999659895897 0.45639699697494507
vt 0.031778000295162201 0.39909195899963379
vt 0.050808001309633255 0.39998495578765869
vt 0.019210999831557274 0.32743799686431885
vt 0.014810999855399132 0.2691349983215332
vt 0.041046999394893646 0.26998698711395264
vt 0.037808001041412354 0.32879000902175903
vt 0.004838000051677227 0.4895319938659668
vt 0.050427999347448349 0.48793399333953857
vt 0.053755000233650208 0.51712000370025635
vt 0.0040150000713765621 0.52868497371673584
vt 0.019416000694036484 0.21831202507019043
vt 0.041905999183654785 0.21686697006225586
vt 0.04949599876999855 0.55066299438476563
vt 0.017913000658154488 0.55855000019073486
vt 0.0081730000674724579 0.47573196887969971
vt 0.056715000420808792 0.47411000728607178
vt 0.050163999199867249 0.50870901346206665
vt 0.014860000461339951 0.51859301328659058
vt 0.005644999910145998 0.56922197341918945
vt 0.04868600144982338 0.54154402017593384
vt 0.032494001090526581 0.56391799449920654
vt 0.011749999597668648 0.43219500780105591
vt 0.043467000126838684 0.42956000566482544
vt 0.016737999394536018 0.37434101104736328
vt 0.043483998626470566 0.37236404418945313
vt 0.0227230004966259 0.30334901809692383
vt 0.042934998869895935 0.30192601680755615
vt 0.019272999837994576 0.24619603157043457
vt 0.043071001768112183 0.25021600723266602
vt 0.0096490001305937767 0.19554001092910767
vt 0.046900000423192978 0.20580399036407471
vt 0.0095469998195767403 0.40555095672607422
vt 0.043616000562906265 0.40545296669006348
vt 0.045060001313686371 0.44682800769805908
vt 0.0099149998277425766 0.44420897960662842
vt 0.007519999984651804 0.30286198854446411
vt 0.048850998282432556 0.29942101240158081
vt 0.042525000870227814 0.34017801284790039
vt 0.0091589996591210365 0.34300899505615234
vt 0.0034340000711381435 0.21296203136444092
vt 0.056825999170541763 0.20827502012252808
vt 0.056333001703023911 0.24871397018432617
vt 0.0055880001746118069 0.25334900617599487
vt 0.0093139996752142906 0.37436801195144653
vt 0.043278001248836517 0.37298500537872314
vt 0.001955999992787838 0.17785000801086426
vt 0.057188998907804489 0.17645198106765747
vt 0.0075400001369416714 0.44577199220657349
vt 0.042677000164985657 0.44953703880310059
vt 0.034658998250961304 0.48128104209899902
vt 0.0063390000723302364 0.47041797637939453
vt 0.010865000076591969 0.34434401988983154
vt 0.054198000580072403 0.34345197677612305
vt 0.054588999599218369 0.39181697368621826
vt 0.010657000355422497 0.39635097980499268
vt 0.0069389999844133854 0.22152602672576904
vt 0.038803000003099442 0.2313159704208374
vt 0.038734998553991318 0.2829660177230835
vt 0.0113129997625947 0.28015601634979248
vt 0.0093120001256465912 0.41927200555801392
vt 0.048661999404430389 0.41962897777557373
vt 0.001888000057078898 0.17106300592422485
vt 0.039044998586177826 0.1862109899520874
vn 0.90824735164642334 0.40176627039909363 0.11692142486572266
vn 0.90489190816879272 0.40642732381820679 0.12644171714782715
vn 0.92056030035018921 0.35773089528083801 0.15683534741401672
vn 0.9321175217628479 0.30543521046638489 0.19459261000156403
vn 0.93936550617218018 0.31922131776809692 0.12526030838489532
vn 0.94116908311843872 0.31115004420280457 0.13185766339302063
vn 0.93125432729721069 0.32441231608390808 0.16589759290218353
vn 0.92955189943313599 0.3397524356842041 0.14318372309207916
vn 0.92161977291107178 0.34174466133117676 0.18392275273799896
vn 0.91950738430023193 0.36299464106559753 0.15080137550830841
vn 0.93870961666107178 0.31444081664085388 0.14124901592731476
vn 0.94037997722625732 0.30465546250343323 0.15123024582862854
vn 0.914875328540802 0.38448116183280945 0.1231963038444519
vn 0.91930890083312988 0.35845169425010681 0.1624300628900528
vn 0.91271281242370605 0.36757937073707581 0.17843978106975555
vn 0.91086232662200928 0.38320073485374451 0.15325468778610229
vn -0.98942536115646362 0.080132350325584412 0.12089776992797852
vn -0.97557961940765381 0.11762277781963348 0.18549732863903046
vn -0.98065322637557983 0.087894625961780548 0.17491088807582855
vn -0.99722385406494141 0.030491665005683899 0.067932292819023132
vn -0.97517627477645874 0.15075269341468811 0.16218777000904083
vn -0.95393913984298706 0.2209390252828598 0.20294350385665894
vn -0.94528090953826904 0.16408063471317291 0.28199562430381775
vn -0.94330430030822754 0.16385537385940552 0.28866669535636902
vn -0.84813827276229858 0.4781855046749115 0.22803527116775513
vn -0.89094477891921997 0.41613537073135376 0.18179312348365784
vn -0.77406233549118042 0.60273647308349609 0.19374255836009979
vn -0.82609564065933228 0.53842812776565552 0.16631636023521423
vn -0.98110175132751465 0.12425106018781662 0.14832726120948792
vn -0.97256666421890259 0.14435380697250366 0.18241727352142334
vn -0.90310209989547729 0.37828603386878967 0.20323939621448517
vn -0.9313235878944397 0.32651802897453308 0.16131459176540375
vn -0.17968554794788361 0.98349004983901978 0.021456381306052208
vn -0.23244747519493103 0.97258502244949341 -0.0068247937597334385
vn -0.0061648092232644558 0.99984705448150635 -0.016367552801966667
vn 0.054261155426502228 0.9980931282043457 0.029425680637359619
vn -0.37261795997619629 0.92797917127609253 -0.003244421212002635
vn -0.39468571543693542 0.91846716403961182 -0.025323858484625816
vn -0.32702165842056274 0.94496738910675049 0.009670475497841835
vn -0.29408872127532959 0.95510238409042358 0.035934146493673325
vn -0.39952424168586731 0.91648274660110474 -0.020969998091459274
vn -0.40698930621147156 0.91293764114379883 -0.03007679246366024
vn 0.06437259167432785 0.99724036455154419 -0.036984845995903015
vn 0.084698513150215149 0.99639570713043213 0.0046697244979441166
vn -0.44305756688117981 0.89289015531539917 0.08029436320066452
vn -0.48176705837249756 0.87478214502334595 0.05154317244887352
vn -0.43464973568916321 0.89805430173873901 0.067661628127098083
vn -0.43270868062973022 0.89902442693710327 0.067217834293842316
vn -0.4105013906955719 0.9083942174911499 0.079426571726799011
vn -0.15971270203590393 0.98659598827362061 0.033469025045633316
vn -0.18160435557365417 0.98245865106582642 0.042365357279777527
vn -0.43045690655708313 0.89867639541625977 0.084187731146812439
vn -0.57549494504928589 0.81780463457107544 0.0010403783526271582
vn -0.52183055877685547 0.85069108009338379 0.063384175300598145
vn -0.58398640155792236 0.80777853727340698 -0.080334894359111786
vn -0.58734941482543945 0.80275779962539673 -0.10295912623405457
vn -0.14589832723140717 0.98875218629837036 0.032905902713537216
vn -0.14258764684200287 0.98921012878417969 0.03364616259932518
vn -0.56407862901687622 0.80430459976196289 -0.1868407279253006
vn -0.52055138349533081 0.84923815727233887 -0.088435404002666473
vn 0.40499573945999146 0.90768647193908691 0.10992611944675446
vn 0.41459763050079346 0.90114128589630127 0.12670135498046875
vn 0.42640215158462524 0.90322625637054443 0.048616461455821991
vn 0.46436277031898499 0.88282638788223267 0.070603229105472565
vn 0.56597095727920532 0.81983041763305664 0.086919151246547699
vn 0.52329862117767334 0.85167151689529419 0.028534127399325371
vn 0.61317402124404907 0.7898070216178894 0.014917230233550072
vn 0.4406048059463501 0.88884037733078003 0.12581801414489746
vn 0.44175508618354797 0.88692992925643921 0.13493619859218597
vn 0.39322665333747864 0.91616570949554443 0.077545054256916046
vn 0.37591153383255005 0.92424720525741577 0.066765055060386658
vn 0.34928604960441589 0.93660610914230347 0.02771756611764431
vn 0.34694990515708923 0.93762862682342529 0.02187119796872139
vn 0.32799270749092102 0.94444328546524048 0.021158462390303612
vn 0.34251865744590759 0.93946486711502075 0.009312804788351059
vn 0.28566107153892517 0.95659977197647095 0.057572342455387115
vn 0.30217680335044861 0.95200693607330322 0.048702817410230637
vn 0.22798870503902435 -0.93630427122116089 0.26712438464164734
vn 0.19760408997535706 -0.93576043844223022 0.29207026958465576
vn 0.24505990743637085 -0.92334204912185669 0.29560971260070801
vn 0.28430438041687012 -0.92049962282180786 0.26805123686790466
vn 0.14287246763706207 -0.98974066972732544 -0.00090018025366589427
vn 0.15285465121269226 -0.98818135261535645 -0.011537173762917519
vn 0.13585014641284943 -0.98776566982269287 0.076575197279453278
vn 0.15042287111282349 -0.98615431785583496 0.06980433315038681
vn 0.21613036096096039 -0.97603887319564819 0.025214478373527527
vn 0.22036658227443695 -0.97510260343551636 0.024768538773059845
vn 0.19308279454708099 -0.98117238283157349 -0.0044519016519188881
vn 0.16639511287212372 -0.98589766025543213 0.017846172675490379
vn 0.19654245674610138 -0.96526801586151123 0.17212997376918793
vn 0.16737483441829681 -0.965992271900177 0.19709043204784393
vn 0.22065944969654083 -0.97479069232940674 0.033053603023290634
vn 0.19340993463993073 -0.97830402851104736 0.074255287647247314
vn -0.53218579292297363 -0.82154232263565063 0.20456419885158539
vn -0.50903952121734619 -0.84306150674819946 0.17356859147548676
vn -0.5376812219619751 -0.82127290964126587 0.19081316888332367
vn -0.56730502843856812 -0.79223096370697021 0.22480015456676483
vn -0.45598557591438293 -0.88907694816589355 0.040240343660116196
vn -0.44794932007789612 -0.89354598522186279 0.030281079933047295
vn -0.46355161070823669 -0.88178449869155884 0.087040036916732788
vn -0.47706475853919983 -0.87019062042236328 0.12319692224264145
vn -0.46840387582778931 -0.88195836544036865 0.052414517849683762
vn -0.47062286734580994 -0.88105911016464233 0.047423195093870163
vn -0.44133427739143372 -0.89715558290481567 0.018328741192817688
vn -0.43908205628395081 -0.89830142259597778 0.016170913353562355
vn -0.49666163325309753 -0.84677374362945557 0.19052942097187042
vn -0.47773793339729309 -0.8650214672088623 0.1533111184835434
vn -0.47348469495773315 -0.87820589542388916 0.067577138543128967
vn -0.47196519374847412 -0.87912207841873169 0.066281326115131378
f 1/1/1 2/2/2 3/3/3
f 3/3/3 4/4/4 1/1/1
f 5/5/5 6/6/6 7/7/7
f 7/7/7 8/8/8 5/5/5
f 9/9/9 10/10/10 11/11/11
f 11/11/11 12/12/12 9/9/9
f 13/13/13 14/14/14 2/2/2
f 2/2/2 1/1/1 13/13/13
f 12/12/12 11/11/11 6/6/6
f 6/6/6 5/5/5 12/12/12
f 15/15/15 16/16/16 10/10/10
f 10/10/10 9/9/9 15/15/15
f 8/8/8 7/7/7 14/14/14
f 14/14/14 13/13/13 8/8/8
f 17/17/17 18/18/18 19/19/19
f 19/19/19 20/20/20 17/17/17
f 21/21/21 22/22/22 23/23/23
f 23/23/23 24/24/24 21/21/21
f 25/25/25 26/26/26 27/27/27
f 27/27/27 28/28/28 25/25/25
f 29/29/29 30/30/30 18/18/18
f 18/18/18 17/17/17 29/29/29
f 28/28/28 27/27/27 22/22/22
f 22/22/22 21/21/21 28/28/28
f 31/31/31 32/32/32 26/26/26
f 26/26/26 25/25/25 31/31/31
f 24/24/24 23/23/23 30/30/30
f 30/30/30 29/29/29 24/24/24
f 33/33/33 34/34/34 35/35/35
f 35/35/35 36/36/36 33/33/33
f 37/37/37 38/38/38 39/39/39
f 39/39/39 40/40/40 37/37/37
f 40/40/40 39/39/39 34/34/34
f 34/34/34 33/33/33 40/40/40
f 41/41/41 42/42/42 38/38/38
f 38/38/38 37/37/37 41/41/41
f 36/36/36 35/35/35 43/43/43
f 43/43/43 44/44/44 36/36/36
f 45/45/45 46/46/46 47/47/47
f 47/47/47 48/48/48 45/45/45
f 49/49/49 50/50/50 51/51/51
f 51/51/51 52/52/52 49/49/49
f 53/53/53 54/54/54 55/55/55
f 55/55/55 56/56/56 53/53/53
f 48/48/48 47/47/47 49/49/49
f 49/49/49 52/52/52 48/48/48
f 51/51/51 50/50/50 57/57/57
f 57/57/57 58/58/58 51/51/51
f 54/54/54 53/53/53 46/46/46
f 46/46/46 45/45/45 54/54/54
f 56/56/56 55/55/55 59/59/59
f 59/59/59 60/60/60 56/56/56
f 61/61/61 62/62/62 63/63/63
f 63/63/63 64/64/64 61/61/61
f 65/65/65 64/64/64 66/66/66
f 66/66/66 67/67/67 65/65/65
f 68/68/68 69/69/69 62/62/62
f 62/62/62 61/61/61 68/68/68
f 69/69/69 68/68/68 70/70/70
f 70/70/70 71/71/71 69/69/69
f 71/71/71 70/70/70 72/72/72
f 72/72/72 73/73/73 71/71/71
f 72/72/72 74/74/74 75/75/75
f 75/75/75 73/73/73 72/72/72
f 74/74/74 76/76/76 77/77/77
f 77/77/77 75/75/75 74/74/74
f 66/66/66 64/64/64 63/63/63
f 78/78/78 79/79/79 80/80/80
f 80/80/80 81/81/81 78/78/78
f 82/82/82 83/83/83 84/84/84
f 84/84/84 85/85/85 82/82/82
f 86/86/86 87/87/87 88/88/88
f 88/88/88 89/89/89 86/86/86
f 90/90/90 91/91/91 79/79/79
f 79/79/79 78/78/78 90/90/90
f 89/89/89 88/88/88 83/83/83
f 83/83/83 82/82/82 89/89/89
f 92/92/92 93/93/93 87/87/87
f 87/87/87 86/86/86 92/92/92
f 85/85/85 84/84/84 91/91/91
f 91/91/91 90/90/90 85/85/85
f 94/94/94 95/95/95 96/96/96
f 96/96/96 97/97/97 94/94/94
f 98/98/98 99/99/99 100/100/100
f 100/100/100 101/101/101 98/98/98
f 102/102/102 103/103/103 104/104/104
f 104/104/104 105/105/105 102/102/102
f 106/106/106 107/107/107 95/95/95
f 95/95/95 94/94/94 106/106/106
f 105/105/105 104/104/104 99/99/99
f 99/99/99 98/98/98 105/105/105
f 108/108/108 109/109/109 103/103/103
f 103/103/103 102/102/102 108/108/108
f 101/101/101 100/100/100 107/107/107
f 107/107/107 106/106/106 101/101/101
